<!-- icon666.com - MILLIONS OF FREE VECTOR ICONS --><svg viewBox="0 0 64 64" xmlns="http://www.w3.org/2000/svg"><g id="ac"><g><circle cx="32" cy="32" fill="#747476" r="30"></circle><path d="m33.88 2.057c-7.999-.488-15.371 2.162-21.006 6.835-7.635 6.332-9.381 17.319-4.584 26.001 5.779 10.458 16.915 17.54 29.71 17.54 2.744 0 5.412-.327 7.966-.943 9.688-2.337 16.521-11.179 15.99-21.131-.006-.119-.013-.238-.021-.357-.969-14.919-13.133-27.036-28.056-27.946z" fill="#9b9b9d"></path><circle cx="52" cy="32" fill="#747476" r="6"></circle><circle cx="42" cy="48" fill="#747476" r="4"></circle><circle cx="38" cy="36" fill="#747476" r="3"></circle><circle cx="21" cy="21" fill="#747476" r="8"></circle><circle cx="24" cy="50" fill="#717172" r="5"></circle><circle cx="14" cy="38" fill="#747476" r="3"></circle><circle cx="42" cy="15" fill="#747476" r="2"></circle><g fill="#b9b8bd"><path d="m19.655 13.122c-3.776.641-6.655 3.919-6.655 7.878s2.879 7.237 6.655 7.878c3.776-.641 6.655-3.919 6.655-7.878s-2.878-7.237-6.655-7.878z"></path><path d="m13.649 35.035c-1.49.176-2.649 1.428-2.649 2.965s1.16 2.789 2.649 2.965c1.49-.176 2.649-1.428 2.649-2.965s-1.16-2.789-2.649-2.965z"></path><path d="m42 13c-.982 0-1.794.709-1.964 1.641.169.933.982 1.641 1.964 1.641s1.794-.708 1.964-1.641c-.169-.933-.982-1.641-1.964-1.641z"></path><path d="m52 26c-1.382 0-2.652.472-3.666 1.258-.786 1.015-1.258 2.284-1.258 3.666 0 3.314 2.686 6 6 6 1.382 0 2.652-.472 3.666-1.258.785-1.014 1.258-2.284 1.258-3.666 0-3.314-2.686-6-6-6z"></path><path d="m38 33c-1.486 0-2.71 1.082-2.95 2.5.239 1.418 1.464 2.5 2.95 2.5s2.71-1.082 2.95-2.5c-.239-1.418-1.464-2.5-2.95-2.5z"></path><path d="m42 44c-2.008 0-3.655 1.484-3.941 3.413.286 1.928 1.933 3.413 3.941 3.413s3.655-1.485 3.941-3.413c-.286-1.929-1.933-3.413-3.941-3.413z"></path><path d="m28.844 51.182c.093-.381.156-.773.156-1.182 0-2.761-2.239-5-5-5-1.712 0-3.22.862-4.121 2.174 2.749 1.742 5.757 3.111 8.965 4.008z"></path></g><path d="m20.032 48.968c0-1.117.379-2.138.998-2.97-1.225.911-2.03 2.358-2.03 4.002 0 2.761 2.239 5 5 5 1.644 0 3.091-.805 4.002-2.03-.832.619-1.853.998-2.97.998-2.761 0-5-2.239-5-5z" fill="#616162"></path></g></g><g id="af"><g><path d="m32 1c-17.093 0-31 13.907-31 31s13.907 31 31 31c5.246 0 10.431-1.335 14.993-3.86.483-.268.658-.876.391-1.359-.267-.482-.875-.658-1.359-.391-4.266 2.362-9.116 3.61-14.024 3.61-15.991 0-29-13.009-29-29s13.008-29 28.999-29 29 13.009 29 29c0 8.6-3.784 16.705-10.382 22.235-.423.355-.479.986-.124 1.409s.985.479 1.409.124c7.052-5.912 11.097-14.575 11.097-23.768 0-17.093-13.907-31-31-31z"></path><path d="m52 39c3.86 0 7-3.14 7-7s-3.14-7-7-7-7 3.14-7 7 3.14 7 7 7zm0-12c2.757 0 5 2.243 5 5s-2.243 5-5 5-5-2.243-5-5 2.243-5 5-5z"></path><path d="m42 53c2.757 0 5-2.243 5-5s-2.243-5-5-5-5 2.243-5 5 2.243 5 5 5zm0-8c1.654 0 3 1.346 3 3s-1.346 3-3 3-3-1.346-3-3 1.346-3 3-3z"></path><path d="m34 36c0 2.206 1.794 4 4 4s4-1.794 4-4-1.794-4-4-4-4 1.794-4 4zm6 0c0 1.103-.897 2-2 2s-2-.897-2-2 .897-2 2-2 2 .897 2 2z"></path><path d="m21 12c-4.962 0-9 4.038-9 9s4.038 9 9 9c2.12 0 4.179-.751 5.798-2.116.422-.356.476-.987.12-1.409s-.987-.477-1.409-.12c-1.259 1.061-2.86 1.646-4.509 1.646-3.86 0-7-3.14-7-7s3.14-7 7-7 7 3.14 7 7c0 1.095-.246 2.144-.729 3.115-.246.494-.045 1.095.449 1.341.495.246 1.095.044 1.341-.449.624-1.251.939-2.599.939-4.007 0-4.962-4.038-9-9-9z"></path><path d="m24 56c3.309 0 6-2.691 6-6s-2.691-6-6-6-6 2.691-6 6 2.691 6 6 6zm0-10c2.206 0 4 1.794 4 4s-1.794 4-4 4-4-1.794-4-4 1.794-4 4-4z"></path><path d="m14 34c-2.206 0-4 1.794-4 4s1.794 4 4 4 4-1.794 4-4-1.794-4-4-4zm0 6c-1.103 0-2-.897-2-2s.897-2 2-2 2 .897 2 2-.897 2-2 2z"></path><path d="m45 15c0-1.654-1.346-3-3-3s-3 1.346-3 3 1.346 3 3 3 3-1.346 3-3zm-4 0c0-.551.449-1 1-1s1 .449 1 1-.449 1-1 1-1-.449-1-1z"></path></g></g></svg>