<!-- icon666.com - MILLIONS OF FREE VECTOR ICONS --><svg version="1.1" id="Capa_1" xmlns="http://www.w3.org/2000/svg" xmlns:xlink="http://www.w3.org/1999/xlink" x="0px" y="0px" viewBox="0 0 512 512" style="enable-background:new 0 0 512 512;" xml:space="preserve"><path style="fill:#FFCC00;" d="M399.36,256c0,79.176-64.184,143.36-143.36,143.36S112.64,335.176,112.64,256 S176.824,112.64,256,112.64S399.36,176.824,399.36,256"></path><path d="M256,389.12c-73.4,0-133.12-59.72-133.12-133.12S182.6,122.88,256,122.88S389.12,182.6,389.12,256S329.4,389.12,256,389.12 M256,102.4c-84.705,0-153.6,68.895-153.6,153.6S171.295,409.6,256,409.6S409.6,340.705,409.6,256S340.705,102.4,256,102.4"></path><path d="M266.24,71.68V10.24C266.24,4.588,261.652,0,256,0c-5.652,0-10.24,4.588-10.24,10.24v61.44c0,5.652,4.588,10.24,10.24,10.24 C261.652,81.92,266.24,77.332,266.24,71.68"></path><path d="M437.023,74.977c-3.994-3.994-10.486-3.994-14.479,0l-43.459,43.438c-3.994,3.994-3.994,10.486,0,14.479 c2.007,2.007,4.628,3.011,7.25,3.011c2.621,0,5.243-1.004,7.229-3.011l43.459-43.438C441.016,85.463,441.016,78.971,437.023,74.977"></path><path d="M501.76,245.76h-61.44c-5.652,0-10.24,4.588-10.24,10.24c0,5.652,4.588,10.24,10.24,10.24h61.44 c5.652,0,10.24-4.588,10.24-10.24C512,250.348,507.412,245.76,501.76,245.76"></path><path d="M379.085,379.105c-3.994,3.994-3.994,10.486,0,14.479l43.459,43.438c1.987,2.007,4.608,3.011,7.229,3.011 c2.621,0,5.243-1.004,7.25-3.011c3.994-3.994,3.994-10.486,0-14.479l-43.459-43.438 C389.571,375.112,383.078,375.112,379.085,379.105"></path><path d="M245.76,440.32v61.44c0,5.652,4.588,10.24,10.24,10.24c5.652,0,10.24-4.588,10.24-10.24v-61.44 c0-5.652-4.588-10.24-10.24-10.24C250.348,430.08,245.76,434.668,245.76,440.32"></path><path d="M118.436,379.105l-43.459,43.438c-3.994,3.994-3.994,10.486,0,14.479c2.007,2.007,4.628,3.011,7.25,3.011 s5.243-1.004,7.229-3.011l43.459-43.438c3.994-3.994,3.994-10.486,0-14.479C128.922,375.112,122.429,375.112,118.436,379.105"></path><path d="M81.92,256c0-5.652-4.588-10.24-10.24-10.24H10.24C4.588,245.76,0,250.348,0,256c0,5.652,4.588,10.24,10.24,10.24h61.44 C77.332,266.24,81.92,261.652,81.92,256"></path><path d="M132.915,132.895c3.994-3.994,3.994-10.486,0-14.479L89.457,74.977c-3.994-3.994-10.465-3.994-14.479,0 c-3.994,3.994-3.994,10.486,0,14.479l43.459,43.438c2.007,2.007,4.628,2.99,7.229,2.99 C128.287,135.885,130.908,134.902,132.915,132.895"></path><path style="opacity:0.12;enable-background:new ;" d="M409.6,256c0-6.758-0.532-13.722-1.72-21.934 c-0.717-5.038-5.038-8.786-10.138-8.786c-5.1,0-9.421,3.748-10.138,8.786C378.266,299.09,321.679,348.16,256,348.16 s-122.266-49.07-131.604-114.094c-0.717-5.038-5.038-8.786-10.138-8.786c-5.1,0-9.421,3.748-10.138,8.786 c-1.188,8.212-1.72,15.176-1.72,21.934c0,84.705,68.895,153.6,153.6,153.6S409.6,340.705,409.6,256"></path></svg>